<?xml version="1.0" standalone="no"?>
<svg viewBox="0 0 200 200" xmlns="http://www.w3.org/2000/svg">
  <path fill="#28292D" d="M47.4,-65.4C62.1,-54.5,75.3,-41.6,80.1,-26.2C85,-10.7,81.5,7.3,75.8,24.6C70.2,41.9,62.4,58.5,49.4,68.9C36.4,79.2,18.2,83.3,1.4,81.4C-15.4,79.5,-30.8,71.5,-44.8,61.5C-58.9,51.5,-71.7,39.5,-78.7,24.1C-85.6,8.8,-86.8,-9.9,-81.6,-26.6C-76.3,-43.4,-64.7,-58.2,-50,-69.1C-35.3,-80,-17.7,-87.1,-0.7,-86.1C16.3,-85.2,32.6,-76.3,47.4,-65.4Z" transform="translate(100 100)" />
</svg>
